<?xml version="1.0" encoding="UTF-8" standalone="no"?>
<!-- Creator: CorelDRAW -->

<svg
   xml:space="preserve"
   width="246mm"
   height="67mm"
   version="1.1"
   style="clip-rule:evenodd;fill-rule:evenodd;image-rendering:optimizeQuality;shape-rendering:geometricPrecision;text-rendering:geometricPrecision"
   viewBox="0 0 24599.122 6699.7623"
   id="svg5"
   xmlns="http://www.w3.org/2000/svg"
   xmlns:svg="http://www.w3.org/2000/svg">
 <defs
   id="defs1">
  <style
   type="text/css"
   id="style1">
   <![CDATA[
    .fil0 {fill:none}
    .fil1 {fill:#ED3237;fill-rule:nonzero}
    .fil2 {fill:black;fill-rule:nonzero}
   ]]>
  </style>
 </defs>
 <g
   id="Layer_x0020_1">
  <metadata
   id="CorelCorpID_0Corel-Layer" />
  <rect
   class="fil0"
   y="4356.4399"
   width="29698.939"
   height="20999.25"
   id="rect1"
   x="0" />
  <rect
   class="fil0"
   x="4343.2402"
   width="20999.25"
   height="9899.6504"
   id="rect2"
   y="0" />
  <g
   id="_1899557267056"
   transform="translate(-2586.4915,-11521.383)">
   <path
   class="fil1"
   d="m 24592.49,13263.47 c -138.15,0 -246.33,110.13 -246.33,250.69 0,140.56 108.19,250.65 246.33,250.65 135.67,0 241.9,-110.09 241.9,-250.65 0,-140.56 -106.24,-250.69 -241.9,-250.69 z"
   id="path2" />
   <path
   class="fil2"
   d="m 26286.42,15100.84 c -302.79,-69.77 -488.41,-121.74 -488.41,-303.27 0,-192.79 213.92,-296.84 415.15,-296.84 241.98,0 384.89,74.73 477.78,249.82 l 23.8,44.7 309.62,-176.01 -23.45,-42.52 c -152.4,-276.26 -433.69,-428.42 -792.14,-428.42 -445.08,0 -780.69,281.03 -780.69,653.72 0,483.56 424.51,579.16 765.64,655.9 307.42,69.2 495.87,121.28 495.87,312.1 0,235.31 -254.29,318.81 -472.07,318.81 -262.9,0 -429.14,-94.46 -538.92,-306.32 l -23.16,-44.78 -309.33,169.82 21.57,42.41 c 160.61,316.82 465.58,491.3 858.59,491.3 482.87,0 833.29,-284.13 833.29,-675.61 0,-486.69 -428.69,-585.46 -773.13,-664.81 z M 12774.56,13699.12 c 371.77,0 712.97,188.69 890.56,492.53 l 24.82,42.43 316.2,-184.84 -23.4,-42.09 c -231.3,-415.5 -690.88,-673.61 -1199.43,-673.61 -833.82,0 -1512.23,696.07 -1512.23,1551.61 0,862.88 678.41,1564.84 1512.23,1564.84 592,0 1012.9,-291.16 1209.42,-563.57 l 9.31,-12.87 v -919.29 h -374.3 v 785.49 c -142.41,173.37 -472.66,344.66 -844.43,344.66 -630.69,0 -1124.73,-524.85 -1124.73,-1194.85 0,-656.41 500.63,-1190.46 1115.98,-1190.46 z m 3209.36,37.99 c -158.24,-117.43 -346.33,-179.59 -543.96,-179.84 -197.69,0.25 -385.78,62.42 -543.97,179.84 l -175.9,-237 c 209.19,-155.23 457.69,-237.54 718.76,-237.97 h 2.21 c 261.05,0.43 509.55,82.74 718.71,237.97 z m -533.03,746.12 c 393.47,0 668.2,252.3 697.42,633.12 h -1412.68 c 58.62,-380.98 340.21,-633.12 715.26,-633.12 z m 0,-356.85 c -624.85,0 -1096.11,497.59 -1096.11,1157.39 0,662.39 491.94,1161.84 1144.31,1161.84 422.65,0 763.08,-195.73 958.54,-551.15 l 23.89,-43.38 -296.24,-160.42 -23.81,42.06 c -166.1,294.33 -451.87,356.07 -662.38,356.07 -398.19,0 -708.51,-266.6 -771.84,-655.01 h 1793.47 v -211.29 c 0,-645.36 -439.91,-1096.1 -1069.82,-1096.1 z m 2606.29,4.39 c -634.65,0 -1061.08,456.31 -1061.08,1135.5 v 1135.53 h 369.97 v -1113.64 c 0,-553.04 347.14,-800.57 691.12,-800.57 492.5,0 712.97,404.28 712.97,805.01 v 1109.2 h 369.97 v -1139.89 c 0,-676.55 -435.2,-1131.14 -1082.94,-1131.14 z m 2628.16,352.46 c 393.44,0 668.2,252.3 697.41,633.12 h -1412.7 c 58.64,-380.98 340.24,-633.12 715.29,-633.12 z m 0,-356.85 c -624.85,0 -1096.11,497.59 -1096.11,1157.39 0,662.39 491.94,1161.84 1144.28,1161.84 422.68,0 763.08,-195.73 958.6,-551.15 l 23.86,-43.38 -296.24,-160.42 -23.78,42.06 c -166.16,294.33 -451.9,356.07 -662.44,356.07 -398.16,0 -708.48,-266.6 -771.81,-655.01 h 1793.47 v -211.29 c 0,-645.36 -439.91,-1096.1 -1069.82,-1096.1 z m 2364.14,974.46 c -302.81,-69.77 -488.41,-121.74 -488.41,-303.27 0,-192.79 213.93,-296.84 415.15,-296.84 241.99,0 384.86,74.73 477.78,249.82 l 23.77,44.7 309.66,-176.01 -23.46,-42.52 c -152.4,-276.26 -433.72,-428.42 -792.14,-428.42 -445.08,0 -780.72,281.03 -780.72,653.72 0,483.56 424.54,579.16 765.67,655.9 307.39,69.2 495.87,121.28 495.87,312.1 0,235.31 -254.32,318.81 -472.06,318.81 -263.02,0 -429.2,-94.46 -538.93,-306.32 l -23.16,-44.78 -309.27,169.82 21.54,42.41 c 160.58,316.82 465.52,491.3 858.57,491.3 482.86,0 833.28,-284.13 833.28,-675.61 0,-486.69 -428.69,-585.46 -773.13,-664.81 z m 1358.02,1300.98 h 369.94 v -2222.86 h -369.94 z"
   id="path3" />
   <path
   class="fil1"
   d="m 4768.47,15267.19 -7.56,-892.2 c -0.78,-89.36 46.19,-172.39 123.22,-217.71 L 5653,13704.61 c 77.03,-45.36 172.38,-46.14 250.17,-2.12 l 776.44,439.51 c 77.79,44.03 126.2,126.2 126.92,215.59 l 7.6,892.2 c 0.75,89.4 -46.18,172.37 -123.23,217.71 l -768.86,452.67 c -77.05,45.36 -172.39,46.14 -250.17,2.12 l -776.47,-439.51 c -77.76,-44.05 -126.14,-126.22 -126.93,-215.59 z m -1704.49,1363.25 c 419.98,559.03 1181.54,779.34 1834.07,528.19 365.03,-140.5 639.85,-391.02 813.53,-692.95 41.14,-71.55 141.83,-71.73 183.5,-0.45 227.52,389.53 563.97,601.37 875.38,702.44 485.99,157.72 1044.83,82.13 1492.51,-274.34 548.84,-437.06 744.13,-1209.81 470.05,-1855.68 -267.92,-631.32 -870.42,-984.39 -1488.32,-977.83 -81.64,0.89 -132.52,-85.51 -92.16,-156.48 305.42,-536.8 289.19,-1234.51 -132.19,-1774.96 -433.12,-555.54 -1207.97,-759.14 -1857.9,-487.49 -367.91,153.77 -642.41,420.81 -807.32,738.65 -220.11,424.25 -267.16,1016.68 40.56,1538.49 41.61,70.56 -8.49,157.32 -90.42,158.56 -265.8,4.06 -534.01,74.13 -779.48,218.68 -810.69,477.29 -1043.52,1560.58 -461.82,2335.16 z"
   id="path4" />
   <path
   class="fil2"
   d="m 6581.37,17788.85 c -650.51,383 -1473.08,213.9 -1928.61,-362.43 -74.73,13.49 -149.71,23 -224.78,26.82 496.89,728.06 1482.31,958.12 2252.83,504.46 226.42,-133.31 406.62,-313.63 543.26,-519 -76.15,-1.77 -152.02,-7.02 -227.01,-18.36 -111.72,143.73 -249.42,270.63 -415.69,368.51 z M 3570.06,12674.07 c 166.24,-97.91 344.01,-156.71 523.9,-184.63 26.5,-71.11 58.73,-139.99 94.08,-207.41 -245.83,19.82 -490.97,89.88 -717.39,223.22 -770.49,453.59 -1047.45,1426.84 -651.94,2214.59 39.78,-63.79 84.47,-124.75 132.49,-183.55 -282.92,-677.98 -31.64,-1479.19 618.87,-1862.21 z m 4975.78,514.26 c 245.79,417.44 261.86,905.29 91.77,1322.55 47.29,56.93 91.42,117.25 132.11,181.11 242.41,-493.88 244.35,-1094.6 -55.04,-1603.08 -299.34,-508.44 -825.53,-798.19 -1374.93,-825.79 36.08,66.62 67.42,134.47 94.27,203.4 447.35,53.71 866.11,304.48 1111.83,721.8 z"
   id="path5" />
  </g>
 </g>
</svg>
