<?xml version="1.0" encoding="UTF-8" standalone="no"?>
<!-- Created with Inkscape (http://www.inkscape.org/) -->

<svg
   width="988.87848mm"
   height="252.58406mm"
   viewBox="0 0 988.87848 252.58406"
   version="1.1"
   id="svg1"
   xml:space="preserve"
   xmlns="http://www.w3.org/2000/svg"
   xmlns:svg="http://www.w3.org/2000/svg"><defs
     id="defs1" /><g
     id="layer1"
     transform="translate(270.85268,-308.5474)"><path
       style="fill:#0b8ce1;fill-opacity:1;stroke-width:1.8689"
       d="m -63.86191,507.44201 36.28055,-0.4723 43.20079,-0.25605 2.89745,-0.84555 c 10.61922,-3.09898 15.91219,-10.24549 15.19625,-20.51798 l -0.26233,-3.76419 -1.77635,-3.61909 C 28.05303,470.58858 20.5532,466.49319 6.3784,464.15354 c -2.60997,-0.43081 -10.92689,-1.98043 -18.48207,-3.44368 -7.55517,-1.46318 -19.581,-3.77521 -26.72405,-5.13781 -28.74366,-5.48302 -34.82935,-6.97767 -41.75383,-10.2546 -19.79117,-9.36591 -31.20617,-24.04893 -35.97215,-46.27066 l -1.15482,-5.38446 0.0167,-9.54521 0.0167,-9.54519 1.37168,-6.30504 c 6.8252,-31.37028 27.08184,-51.59554 58.03631,-57.94588 l 6.45036,-1.32329 141.4652,-0.45032 -44.11727,52.38468 -88.35664,0.46236 -3.12376,0.83193 c -24.45187,6.51202 -24.35284,33.54097 0.14458,39.47944 5.60944,1.35977 61.71833,12.18947 71.16294,13.73528 83.69703,13.69888 88.16979,126.38998 5.71605,144.0164 l -4.9668,1.06177 -53.88169,0.17179 -69.6186,0.0822 z"
       id="path6" /><path
       style="fill:#09132c;fill-opacity:1;stroke-width:1.8689"
       d="M -270.85256,434.77603 V 308.72636 l 27.97653,0.12638 27.97654,0.12638 0.12115,98.87853 0.12115,98.87846 63.31354,0.12429 69.20233,0.26105 -34.57991,54.01001 -68.04366,-0.30583 h -86.08779 z"
       id="path4233" /><path
       style="fill:#09132c;fill-opacity:1;stroke-width:2.67536"
       d="m 433.77622,327.53135 h 11.02226 l 18.89404,-0.15296 -4.44089,8.33917 -14.51724,0.15295 h -15.1802 z"
       id="path22" /><path
       style="fill:#09132c;fill-opacity:1;stroke-width:2.67536"
       d="m 404.20028,421.6266 c 0,-0.2296 7.8274,-17.79348 17.39423,-39.03112 l 17.3942,-38.61394 5.72911,0.0213 5.72912,0.0216 17.10685,37.76762 c 9.40883,20.77219 17.30647,38.32648 17.55047,39.00953 l 0.44353,1.24191 h -4.84149 -4.84151 l -5.07002,-11.53193 -25.84152,-56.64233 -26.15103,56.64233 -5.07006,11.53193 h -4.76593 c -2.62126,0 -4.76595,-0.18769 -4.76595,-0.41723 z"
       id="path21" /><path
       style="fill:#09132c;fill-opacity:1;stroke-width:2.67536"
       d="m 372.4278,387.27061 -0.10943,-35.85446 h -15.18018 -15.12548 l 5.62585,-8.23471 29.53349,-0.27032 h 52.84354 l -4.64095,8.39689 -28.69718,0.10818 h -15.18022 l 0.10943,35.85449 v 34.77321 h -4.58935 -4.58937 z"
       id="path20" /><path
       id="path17"
       style="fill:#09132c;fill-opacity:1;stroke-width:2.67536"
       d="m 518.63903,422.47105 c -26.89285,-2.82674 -43.76949,-28.28834 -35.12358,-52.9905 13.12859,-37.50948 74.1438,-35.79456 83.85174,2.35681 7.6509,30.06723 -15.50249,54.12603 -48.72816,50.63367 z m 15.72371,-9.49243 c 32.20126,-6.85841 33.361,-51.99134 1.54995,-60.31931 -25.54955,-6.68877 -47.77169,10.72519 -44.32984,34.73823 2.74286,19.13595 21.20557,30.17608 42.77989,25.58108 z" /><path
       style="fill:#09132c;fill-opacity:1;stroke-width:2.67536"
       d="m 202.26839,383.01268 v -39.03114 h 29.3013 l 35.64575,-0.15296 -6.34444,8.6688 h -24.35888 -24.35896 v 12.41901 12.41901 h 22.24077 22.24073 v 4.25794 4.25795 h -22.24073 -22.24077 v 13.83829 13.83834 h 24.35896 24.35888 l 5.72548,8.51588 h -35.02679 -29.3013 z"
       id="path19" /><path
       style="fill:#09132c;fill-opacity:1;stroke-width:2.67536"
       d="m 274.58027,421.52985 -5.40658,-7.91181 36.85171,0.36288 c 9.27712,0.0914 16.13107,-2.97873 18.1568,-7.68231 3.79873,-8.82025 -1.57408,-13.95 -22.60435,-20.072 -22.14735,-6.44719 -28.65437,-11.70345 -28.65437,-23.51683 0,-9.15115 5.73589,-16.68201 13.05134,-18.96155 2.64891,-0.82539 6.60162,-0.82445 7.72778,-0.83119 l 45.48148,0.008 -6.11233,8.58009 -38.58571,0.004 c -2.71248,-0.0402 -5.20381,0.38297 -6.24648,0.6961 -2.68486,1.61074 -4.21113,3.28283 -5.41634,5.82515 -1.15302,2.43227 -1.18654,5.7656 1.0003,9.54268 2.40052,4.14616 9.0931,6.02721 20.82293,9.45649 11.85538,3.466 19.53577,6.75104 24.08691,10.77588 4.55119,4.02484 5.97311,8.78945 5.31155,15.21453 -1.0429,10.12864 -6.16437,18.92514 -28.97275,18.9682 -12.14572,0.023 -19.21649,0.21389 -30.49189,-0.45851 z"
       id="path16" /><path
       style="fill:#09132c;fill-opacity:1;stroke-width:2.65952"
       d="m 154.26415,422.7515 c -45.1325,-4.5507 -50.65795,-66.77251 -6.97723,-78.57016 18.10204,-4.88917 45.05944,1.98976 41.14125,10.4983 -0.88521,1.92228 -1.72322,3.49502 -1.86226,3.49502 -0.13894,0 -1.84235,-0.81924 -3.78514,-1.82056 -19.35422,-9.97527 -44.90354,-4.05608 -52.34976,12.12816 -10.83192,23.54317 4.73117,46.8896 31.26438,45.51647 6.97165,-0.0781 13.67207,-0.58129 19.99375,-3.7252 l 0.32872,-10.7614 0.19355,-10.11261 h -11.53162 l -6.17954,-0.15296 -5.35208,-7.65331 h 16.04765 16.04767 v 17.07084 17.07082 l -3.66302,1.62754 c -4.62259,2.05387 -13.66265,4.49297 -18.66417,5.03583 -7.62002,0.82701 -9.50231,0.87237 -14.65219,0.35309 z"
       id="path15" /><path
       style="fill:#09132c;fill-opacity:1;stroke-width:2.66969"
       d="m 483.20184,455.73214 c 0,-0.20631 1.80753,-3.55955 4.01669,-7.45141 l 4.0167,-7.07614 h 10.88829 c 6.50861,0 10.61966,0.25803 10.22041,0.64126 -0.36737,0.35267 -4.42018,3.70581 -9.00623,7.45139 l -8.33826,6.81016 h -5.89882 c -3.24433,0 -5.89878,-0.16886 -5.89878,-0.37526 z"
       id="path14" /><path
       style="fill:#09132c;fill-opacity:1;stroke-width:2.66969"
       d="m 626.62727,500.8158 v -39.03117 h 8.7883 8.7883 v 39.03117 39.03114 h -8.7883 -8.7883 z"
       id="path12" /><path
       style="fill:#09132c;fill-opacity:1;stroke-width:2.66969"
       d="m 657.56217,500.8158 v -39.03117 h 9.1398 9.1399 v 30.51528 30.51526 h 21.0919 21.092 v 8.51588 8.51589 h -30.2318 -30.2318 z"
       id="path13" /><path
       id="path11"
       style="fill:#09132c;fill-opacity:1;stroke-width:2.66969"
       d="m 560.18643,508.9003 -0.0902,18.02054 c 11.20667,0.0201 18.10633,0.11583 29.31291,0.0786 14.22979,-4.24922 10.54932,-17.70485 1.10988,-17.79843 z m -15.81786,31.04168 v -19.55935 -19.55934 -19.55937 -19.55934 l 52.01712,-0.0979 3.93623,1.87695 c 13.04455,6.22015 14.42925,27.75148 1.69047,33.07751 -2.77157,1.1588 -2.65101,1.73501 0.56666,2.70808 17.07962,5.16512 15.21242,32.62412 -2.63886,38.6135 l -5.98614,2.00844 m -8.56722,-47.7973 c 12.36427,-5.0161 9.95128,-13.84696 -0.23217,-16.1171 l -26.36724,-0.29373 -0.21629,16.31989 15.40593,0.1063 z" /><path
       style="fill:#09132c;fill-opacity:1;stroke-width:2.66969"
       d="m 464.44591,540.23393 h -18.4472 l 33.33626,-78.44254 21.52512,0.0747 33.54152,77.98095 -18.79924,0.41018 -25.49067,-64.28702"
       id="path9" /><path
       style="fill:#09132c;fill-opacity:1;stroke-width:2.66969"
       d="m 408.67685,508.97687 v -30.8701 h -14.06132 l -16.2869,-0.21626 v -16.32213 l 39.13656,0.21625 52.49808,0.21625 -7.40724,16.16922 -36.30252,-0.0634 v 30.87011 30.87007 h -8.78832 -8.78834 z"
       id="path8" /><path
       style="fill:#09132c;fill-opacity:1;stroke-width:2.66969"
       d="m 295.48328,500.8158 v -39.03117 h 12.50444 12.50449 l 15.34874,28.7505 c 8.44182,15.81275 15.62818,28.92477 15.96969,29.13782 0.35537,0.22182 0.62096,-12.07541 0.62096,-28.75047 v -29.13785 h 8.78832 8.7883 l 0.15421,16.15144 -0.15421,22.87973 v 39.03114 l -12.12785,-0.0126 -12.12791,-0.0126 -15.81897,-29.90442 -15.819,-29.90444 -0.1835,29.91848 -0.1833,29.91846 h -9.1322 -9.13225 z"
       id="path7" /><path
       id="path5"
       style="fill:#09132c;fill-opacity:1;stroke-width:2.66969"
       d="m 231.45126,540.61435 c -26.07775,-3.68505 -41.68894,-26.04628 -35.39262,-50.69579 9.77733,-38.27719 73.76102,-39.98041 85.30019,-2.27069 9.48601,31.0002 -15.75859,57.79211 -49.90757,52.96648 z m 17.21746,-17.83187 c 6.20898,-1.93573 11.3356,-6.17194 14.1201,-11.66768 l 2.11107,-4.16656 c 0,0 0.79684,-2.74142 0.74796,-5.75788 -0.0471,-2.90749 -0.77746,-6.40663 -0.77746,-6.40663 l -1.8267,-3.96449 c -10.86227,-23.57471 -50.07818,-15.95881 -50.09552,9.72871 0,0 0.0224,3.47403 0.2432,5.79129 0.13475,1.4119 2.0636,4.70672 2.0636,4.70672 5.4102,11.09271 19.5512,16.05928 33.41664,11.73652 z" /><path
       style="fill:#09132c;fill-opacity:1;stroke-width:2.65952"
       d="m 153.21759,540.26542 c -41.21684,-8.20298 -45.78947,-64.19828 -6.33424,-77.56718 l 5.63652,-1.90987 10.81474,0.0167 c 11.6703,0.0167 16.93734,1.00946 25.27751,4.76635 l 3.9969,1.80046 -3.37257,7.3198 c -2.0907,4.53762 -3.74249,7.26964 -4.34575,7.18792 -0.53528,-0.0724 -3.10104,-0.94858 -5.70172,-1.94681 -22.58983,-8.67064 -41.6955,1.59886 -40.83468,21.94907 l 0.2702,6.3869 2.04343,3.80679 c 6.896,12.84659 23.31204,15.67723 43.7361,7.54147 0.9774,-0.38931 8.23502,12.02798 8.23502,14.08959 0,3.94376 -28.62956,8.70818 -39.42146,6.56036 z"
       id="path4238" /><circle
       id="path1"
       style="fill:#09132c;fill-opacity:1;stroke:#000000;stroke-width:0.264583"
       cx="218.80797"
       cy="475.02271"
       r="0.39872047" /></g></svg>
